# xmcd
# 
# Track frame offsets:
#     150
#     24323
#     43530
#     64745
#     85245
#     107850
#     127633
#     148465
#     171418
#     194775
# 
# Disc length: 2926
# 
# Revision: 9
# Processed by: cddbd v1.5.2PL0 Copyright (c) Steve Scherf et al.
# Submitted via: fre:ac v1.0.31
# 
DISCID=8f0b6c0a
DTITLE=Spyro Gyra - Fast Forward
DYEAR=1990
DGENRE=Jazz
TTITLE0=Bright Lights
TTITLE1=Para Ti Latino
TTITLE2=Alexandra
TTITLE3=Ocean Parkway
TTITLE4=Speak Easy
TTITLE5=Futurephobia
TTITLE6=4MD
TTITLE7=Shadow Play
TTITLE8=Escape Hatch
TTITLE9=Tower Of Babel
EXTD=
EXTT0=Dave Samuels
EXTT1=
EXTT2=
EXTT3=
EXTT4=
EXTT5=
EXTT6=
EXTT7=
EXTT8=
EXTT9=
PLAYORDER=
